<?xml version="1.0" encoding="UTF-8" standalone="no"?>
<!-- Created with Inkscape (http://www.inkscape.org/) -->

<svg
   xmlns:dc="http://purl.org/dc/elements/1.1/"
   xmlns:cc="http://creativecommons.org/ns#"
   xmlns:rdf="http://www.w3.org/1999/02/22-rdf-syntax-ns#"
   xmlns:svg="http://www.w3.org/2000/svg"
   xmlns="http://www.w3.org/2000/svg"
   xmlns:sodipodi="http://sodipodi.sourceforge.net/DTD/sodipodi-0.dtd"
   xmlns:inkscape="http://www.inkscape.org/namespaces/inkscape"
   version="1.1"
   id="svg5448"
   xml:space="preserve"
   width="1760.84"
   height="750.20801"
   viewBox="0 0 1760.84 750.20801"
   sodipodi:docname="switch_svg.svg"
   inkscape:version="0.92.2 (5c3e80d, 2017-08-06)"><metadata
     id="metadata5454"><rdf:RDF><cc:Work
         rdf:about=""><dc:format>image/svg+xml</dc:format><dc:type
           rdf:resource="http://purl.org/dc/dcmitype/StillImage" /><dc:title></dc:title></cc:Work></rdf:RDF></metadata><defs
     id="defs5452"><clipPath
       clipPathUnits="userSpaceOnUse"
       id="clipPath5464"><path
         d="M 0,562.656 H 1320.629 V 0 H 0 Z"
         id="path5462"
         inkscape:connector-curvature="0" /></clipPath><clipPath
       clipPathUnits="userSpaceOnUse"
       id="clipPath5488"><path
         d="M 0,562.656 H 1320.629 V 0 H 0 Z"
         id="path5486"
         inkscape:connector-curvature="0" /></clipPath><clipPath
       clipPathUnits="userSpaceOnUse"
       id="clipPath5558"><path
         d="M 0,562.656 H 1320.629 V 0 H 0 Z"
         id="path5556"
         inkscape:connector-curvature="0" /></clipPath><clipPath
       clipPathUnits="userSpaceOnUse"
       id="clipPath5602"><path
         d="M 0,562.656 H 1320.629 V 0 H 0 Z"
         id="path5600"
         inkscape:connector-curvature="0" /></clipPath></defs><sodipodi:namedview
     pagecolor="#ffffff"
     bordercolor="#666666"
     borderopacity="1"
     objecttolerance="10"
     gridtolerance="10"
     guidetolerance="10"
     inkscape:pageopacity="0"
     inkscape:pageshadow="2"
     inkscape:window-width="1920"
     inkscape:window-height="1017"
     id="namedview5450"
     showgrid="false"
     inkscape:zoom="0.61039182"
     inkscape:cx="883.77422"
     inkscape:cy="309.83165"
     inkscape:window-x="-8"
     inkscape:window-y="-8"
     inkscape:window-maximized="1"
     inkscape:current-layer="g5456" /><g
     id="g5456"
     inkscape:groupmode="layer"
     inkscape:label="switch_outline_svg_final"
     transform="matrix(1.3333333,0,0,-1.3333333,0,750.208)"><g
       id="g5458"><g
         id="g5460"
         clip-path="url(#clipPath5464)"><g
           id="g5466"
           transform="translate(1132.8779,1.4977)"><path
             d="m 0,0 h -945.347 c -0.117,0 -1.729,0.072 -2.612,1.323 -0.434,0.616 -0.523,1.251 -0.544,1.583 v 525.938 c -0.055,2.062 0.828,3.88 2.338,4.656 0.704,0.361 1.409,0.427 1.943,0.406 0,0 4.556,-0.239 7.782,2.406 4.281,3.512 3.937,9.448 3.937,9.448 v 7.355 c -0.059,1.171 0.42,2.205 1.256,2.636 0.361,0.185 0.73,0.229 1.036,0.218 h 915.458 c 0.718,0 0.941,0.047 1.559,-0.611 0.574,-0.61 0.533,-1.36 0.524,-1.483 v -6.573 c 0,-5.63 2.185,-10.344 6.167,-12.354 0.938,-0.474 2.538,-1.078 4.792,-1.021 1.47,0.065 2.305,-0.382 2.852,-0.733 2.42,-1.551 2.273,-4.892 2.273,-4.892 V 2.677 C 3.414,2.37 3.19,1.726 2.71,1.158 1.722,-0.01 0.229,-0.005 0,0 Z"
             style="fill:none;stroke:#000000;stroke-width:1;stroke-linecap:butt;stroke-linejoin:miter;stroke-miterlimit:10;stroke-dasharray:none;stroke-opacity:1"
             id="path5468"
             inkscape:connector-curvature="0" /></g><g
           id="g5470"
           transform="translate(310.375,557.468)"><path
             d="m 0,0 v 2.936 c 0,0 0.375,1.062 1.417,1.062 h 24.27 c 0,0 1.322,0.108 1.322,-1.022 h 27.022 c 0,0 -0.015,1.025 1.016,1.025 h 24.307 c 0,0 0.625,-0.086 0.625,-0.898 v -3.105 z"
             style="fill:none;stroke:#000000;stroke-width:1;stroke-linecap:butt;stroke-linejoin:miter;stroke-miterlimit:10;stroke-dasharray:none;stroke-opacity:1"
             id="path5472"
             inkscape:connector-curvature="0" /></g><g
           id="g5474"
           transform="translate(226.6875,19.5289)"><path
             d="m 0,0 c -0.439,0 -6.662,-0.244 -11.187,4.312 -4.385,4.416 -4.25,10.518 -4.25,10.876 v 450.374 38.453 c 0,0.357 -0.135,6.46 4.25,10.875 4.525,4.557 10.748,4.312 11.187,4.312 h 866.855 c 0.439,0 6.663,0.245 11.188,-4.312 4.384,-4.415 4.25,-10.518 4.25,-10.875 V 465.562 15.188 c 0,-0.358 0.134,-6.46 -4.25,-10.876 C 873.518,-0.244 867.294,0 866.855,0 Z"
             style="fill:none;stroke:#000000;stroke-width:1;stroke-linecap:butt;stroke-linejoin:miter;stroke-miterlimit:10;stroke-dasharray:none;stroke-opacity:1"
             id="path5476"
             inkscape:connector-curvature="0" /></g><g
           id="g5478"
           transform="translate(1039.0938,65.3102)"><path
             d="m 0,0 c 0,0 0.927,-0.013 1.573,0.475 0.97,0.732 0.958,2.056 0.958,2.056 v 424.667 c 0,0 0.012,1.324 -0.958,2.056 C 0.927,429.742 0,429.729 0,429.729 h -756.625 c 0,0 -0.927,0.013 -1.573,-0.475 -0.97,-0.732 -0.958,-2.056 -0.958,-2.056 V 2.531 c 0,0 -0.012,-1.324 0.958,-2.056 0.646,-0.488 1.573,-0.475 1.573,-0.475 z"
             style="fill:none;stroke:#000000;stroke-width:1;stroke-linecap:butt;stroke-linejoin:miter;stroke-miterlimit:10;stroke-dasharray:none;stroke-opacity:1"
             id="path5480"
             inkscape:connector-curvature="0" /></g></g></g><g
       id="g5482"><g
         id="g5484"
         clip-path="url(#clipPath5488)"><g
           id="g5490"
           transform="translate(1141.6661,0.5052)"><path
             d="m 0,0 h 67.459 c 7.958,0.214 46.909,2.093 78.333,34.086 31.118,31.682 32.547,70.182 32.667,78.25 V 438.42 c 0.09,10.549 -1.02,41.877 -23.25,71.166 -30.368,40.011 -76.201,44.666 -83.813,45.313 H 3.021 c -2.503,0 -3.864,-0.77 -4.771,-2.313 -0.62,-1.055 -0.584,-2.039 -0.584,-2.666 V 1.951 C -2.346,1.708 -2.321,1.358 -2.133,1.01 -1.767,0.33 -0.932,-0.055 0,0 Z"
             style="fill:none;stroke:#000000;stroke-width:1;stroke-linecap:butt;stroke-linejoin:miter;stroke-miterlimit:10;stroke-dasharray:none;stroke-opacity:1"
             id="path5492"
             inkscape:connector-curvature="0" /></g><g
           id="g5494"
           transform="translate(1215.375,158.2164)"><path
             d="m 0,0 c 0,-12.219 -9.906,-22.125 -22.125,-22.125 -12.219,0 -22.125,9.906 -22.125,22.125 0,12.219 9.906,22.125 22.125,22.125 C -9.906,22.125 0,12.219 0,0 Z"
             style="fill:none;stroke:#000000;stroke-width:1;stroke-linecap:butt;stroke-linejoin:miter;stroke-miterlimit:10;stroke-dasharray:none;stroke-opacity:1"
             id="path5496"
             inkscape:connector-curvature="0" /></g><g
           id="g5498"
           transform="translate(1185.375,149.5498)"><path
             d="m 0,0 h 15.958 v 9.833 h 3.25 l -9.989,9.99 H 6.781 L -3.05,9.992 H 0 Z"
             style="fill:none;stroke:#000000;stroke-width:1;stroke-linecap:butt;stroke-linejoin:miter;stroke-miterlimit:10;stroke-dasharray:none;stroke-opacity:1"
             id="path5500"
             inkscape:connector-curvature="0" /></g><g
           id="g5502"
           transform="translate(1265,262.4664)"><path
             d="m 0,0 c 0,-22.851 -18.524,-41.375 -41.375,-41.375 -22.851,0 -41.375,18.524 -41.375,41.375 0,22.851 18.524,41.375 41.375,41.375 C -18.524,41.375 0,22.851 0,0 Z"
             style="fill:none;stroke:#000000;stroke-width:1;stroke-linecap:butt;stroke-linejoin:miter;stroke-miterlimit:10;stroke-dasharray:none;stroke-opacity:1"
             id="path5504"
             inkscape:connector-curvature="0" /></g><g
           id="g5506"
           transform="translate(1255.375,262.4664)"><path
             d="m 0,0 c 0,-17.535 -14.215,-31.75 -31.75,-31.75 -17.535,0 -31.75,14.215 -31.75,31.75 0,17.535 14.215,31.75 31.75,31.75 C -14.215,31.75 0,17.535 0,0 Z"
             style="fill:none;stroke:#000000;stroke-width:1;stroke-linecap:butt;stroke-linejoin:miter;stroke-miterlimit:10;stroke-dasharray:none;stroke-opacity:1"
             id="path5508"
             inkscape:connector-curvature="0" /></g><g
           id="g5510"
           transform="translate(1255.375,262.4664)"><path
             d="M 0,0 H 7"
             style="fill:none;stroke:#000000;stroke-width:1;stroke-linecap:butt;stroke-linejoin:miter;stroke-miterlimit:10;stroke-dasharray:none;stroke-opacity:1"
             id="path5512"
             inkscape:connector-curvature="0" /></g><g
           id="g5514"
           transform="translate(1191.875,262.4664)"><path
             d="M 0,0 H -7"
             style="fill:none;stroke:#000000;stroke-width:1;stroke-linecap:butt;stroke-linejoin:miter;stroke-miterlimit:10;stroke-dasharray:none;stroke-opacity:1"
             id="path5516"
             inkscape:connector-curvature="0" /></g><g
           id="g5518"
           transform="translate(1223.625,294.2164)"><path
             d="M 0,0 V 7"
             style="fill:none;stroke:#000000;stroke-width:1;stroke-linecap:butt;stroke-linejoin:miter;stroke-miterlimit:10;stroke-dasharray:none;stroke-opacity:1"
             id="path5520"
             inkscape:connector-curvature="0" /></g><g
           id="g5522"
           transform="translate(1223.625,230.7164)"><path
             d="M 0,0 V -6.958"
             style="fill:none;stroke:#000000;stroke-width:1;stroke-linecap:butt;stroke-linejoin:miter;stroke-miterlimit:10;stroke-dasharray:none;stroke-opacity:1"
             id="path5524"
             inkscape:connector-curvature="0" /></g><g
           id="g5526"
           transform="translate(1243.6875,375.1539)"><path
             d="m 0,0 c 0,-11.184 -9.066,-20.25 -20.25,-20.25 -11.184,0 -20.25,9.066 -20.25,20.25 0,11.184 9.066,20.25 20.25,20.25 C -9.066,20.25 0,11.184 0,0 Z"
             style="fill:none;stroke:#000000;stroke-width:1;stroke-linecap:butt;stroke-linejoin:miter;stroke-miterlimit:10;stroke-dasharray:none;stroke-opacity:1"
             id="path5528"
             inkscape:connector-curvature="0" /></g><g
           id="g5530"
           transform="translate(1287.2346,416.6539)"><path
             d="m 0,0 c 0,-11.184 -9.066,-20.25 -20.25,-20.25 -11.184,0 -20.25,9.066 -20.25,20.25 0,11.184 9.066,20.25 20.25,20.25 C -9.066,20.25 0,11.184 0,0 Z"
             style="fill:none;stroke:#000000;stroke-width:1;stroke-linecap:butt;stroke-linejoin:miter;stroke-miterlimit:10;stroke-dasharray:none;stroke-opacity:1"
             id="path5532"
             inkscape:connector-curvature="0" /></g><g
           id="g5534"
           transform="translate(1243.6875,458.1539)"><path
             d="m 0,0 c 0,-11.184 -9.066,-20.25 -20.25,-20.25 -11.184,0 -20.25,9.066 -20.25,20.25 0,11.184 9.066,20.25 20.25,20.25 C -9.066,20.25 0,11.184 0,0 Z"
             style="fill:none;stroke:#000000;stroke-width:1;stroke-linecap:butt;stroke-linejoin:miter;stroke-miterlimit:10;stroke-dasharray:none;stroke-opacity:1"
             id="path5536"
             inkscape:connector-curvature="0" /></g><g
           id="g5538"
           transform="translate(1200.2589,416.6429)"><path
             d="m 0,0 c 0,-11.184 -9.066,-20.25 -20.25,-20.25 -11.184,0 -20.25,9.066 -20.25,20.25 0,11.184 9.066,20.25 20.25,20.25 C -9.066,20.25 0,11.184 0,0 Z"
             style="fill:none;stroke:#000000;stroke-width:1;stroke-linecap:butt;stroke-linejoin:miter;stroke-miterlimit:10;stroke-dasharray:none;stroke-opacity:1"
             id="path5540"
             inkscape:connector-curvature="0" /></g></g></g><text
       transform="matrix(1,0,0,-1,1172.0527,407.7412)"
       style="font-variant:normal;font-weight:500;font-stretch:normal;font-size:25.43510056px;font-family:'Avenir Medium';-inkscape-font-specification:Avenir-Medium;writing-mode:lr-tb;fill:#000000;fill-opacity:1;fill-rule:nonzero;stroke:none"
       id="text5550"><tspan
         x="0"
         y="0"
         id="tspan5542">Y</tspan><tspan
         x="43.977287"
         y="41.713566"
         id="tspan5544">B</tspan><tspan
         x="86.199554"
         y="-0.2034808"
         id="tspan5546">A</tspan><tspan
         x="43.087059"
         y="-41.204861"
         id="tspan5548">X</tspan></text>
<g
       id="g5552"><g
         id="g5554"
         clip-path="url(#clipPath5558)"><g
           id="g5560"
           transform="translate(1182.75,507.0914)"><path
             d="M 0,0 V -9.063"
             style="fill:none;stroke:#000000;stroke-width:1;stroke-linecap:round;stroke-linejoin:round;stroke-miterlimit:10;stroke-dasharray:none;stroke-opacity:1"
             id="path5562"
             inkscape:connector-curvature="0" /></g><g
           id="g5564"
           transform="translate(1172.5,507.0914)"><path
             d="M 0,0 H 10.25"
             style="fill:none;stroke:#000000;stroke-width:1;stroke-linecap:round;stroke-linejoin:round;stroke-miterlimit:10;stroke-dasharray:none;stroke-opacity:1"
             id="path5566"
             inkscape:connector-curvature="0" /></g><g
           id="g5568"
           transform="translate(1163.875,507.0914)"><path
             d="M 0,0 V 9.813 H 8.625 V 0"
             style="fill:none;stroke:#000000;stroke-width:1;stroke-linecap:round;stroke-linejoin:round;stroke-miterlimit:10;stroke-dasharray:none;stroke-opacity:1"
             id="path5570"
             inkscape:connector-curvature="0" /></g><g
           id="g5572"
           transform="translate(1182.75,498.0289)"><path
             d="M 0,0 H -10.25"
             style="fill:none;stroke:#000000;stroke-width:1;stroke-linecap:round;stroke-linejoin:round;stroke-miterlimit:10;stroke-dasharray:none;stroke-opacity:1"
             id="path5574"
             inkscape:connector-curvature="0" /></g><g
           id="g5576"
           transform="translate(1153.625,498.0289)"><path
             d="M 0,0 V 9.063"
             style="fill:none;stroke:#000000;stroke-width:1;stroke-linecap:round;stroke-linejoin:round;stroke-miterlimit:10;stroke-dasharray:none;stroke-opacity:1"
             id="path5578"
             inkscape:connector-curvature="0" /></g><g
           id="g5580"
           transform="translate(1163.875,498.0289)"><path
             d="M 0,0 H -10.25"
             style="fill:none;stroke:#000000;stroke-width:1;stroke-linecap:round;stroke-linejoin:round;stroke-miterlimit:10;stroke-dasharray:none;stroke-opacity:1"
             id="path5582"
             inkscape:connector-curvature="0" /></g><g
           id="g5584"
           transform="translate(1172.5,498.0289)"><path
             d="M 0,0 V -9.813 H -8.625 V 0"
             style="fill:none;stroke:#000000;stroke-width:1;stroke-linecap:round;stroke-linejoin:round;stroke-miterlimit:10;stroke-dasharray:none;stroke-opacity:1"
             id="path5586"
             inkscape:connector-curvature="0" /></g><g
           id="g5588"
           transform="translate(1153.625,507.0914)"><path
             d="M 0,0 H 10.25"
             style="fill:none;stroke:#000000;stroke-width:1;stroke-linecap:round;stroke-linejoin:round;stroke-miterlimit:10;stroke-dasharray:none;stroke-opacity:1"
             id="path5590"
             inkscape:connector-curvature="0" /></g><g
           id="g5592"
           transform="translate(1172.0527,555.4039)"><path
             d="m 0,0 v 4.219 c 0,0.112 -0.072,0.944 0.572,1.593 0.651,0.656 1.372,0.584 1.605,0.584 h 36.739 c 10.39,-0.272 37.486,-2.361 64.281,-21.334 24.89,-17.623 35.921,-40.185 40,-49.875 0.761,-1.495 0.197,-3.289 -1.125,-4.031 -1.453,-0.815 -3.484,-0.167 -4.223,1.533"
             style="fill:none;stroke:#000000;stroke-width:1;stroke-linecap:butt;stroke-linejoin:miter;stroke-miterlimit:10;stroke-dasharray:none;stroke-opacity:1"
             id="path5594"
             inkscape:connector-curvature="0" /></g></g></g><g
       id="g5596"><g
         id="g5598"
         clip-path="url(#clipPath5602)"><g
           id="g5604"
           transform="translate(76.9418,220.3207)"><path
             d="m 0,0 c 0,-11.184 9.066,-20.25 20.25,-20.25 11.184,0 20.25,9.066 20.25,20.25 0,11.184 -9.066,20.25 -20.25,20.25 C 9.066,20.25 0,11.184 0,0 Z"
             style="fill:none;stroke:#000000;stroke-width:1;stroke-linecap:butt;stroke-linejoin:miter;stroke-miterlimit:10;stroke-dasharray:none;stroke-opacity:1"
             id="path5606"
             inkscape:connector-curvature="0" /></g><g
           id="g5608"
           transform="translate(33.3947,261.8207)"><path
             d="m 0,0 c 0,-11.184 9.066,-20.25 20.25,-20.25 11.184,0 20.25,9.066 20.25,20.25 0,11.184 -9.066,20.25 -20.25,20.25 C 9.066,20.25 0,11.184 0,0 Z"
             style="fill:none;stroke:#000000;stroke-width:1;stroke-linecap:butt;stroke-linejoin:miter;stroke-miterlimit:10;stroke-dasharray:none;stroke-opacity:1"
             id="path5610"
             inkscape:connector-curvature="0" /></g><g
           id="g5612"
           transform="translate(76.9418,303.3207)"><path
             d="m 0,0 c 0,-11.184 9.066,-20.25 20.25,-20.25 11.184,0 20.25,9.066 20.25,20.25 0,11.184 -9.066,20.25 -20.25,20.25 C 9.066,20.25 0,11.184 0,0 Z"
             style="fill:none;stroke:#000000;stroke-width:1;stroke-linecap:butt;stroke-linejoin:miter;stroke-miterlimit:10;stroke-dasharray:none;stroke-opacity:1"
             id="path5614"
             inkscape:connector-curvature="0" /></g><g
           id="g5616"
           transform="translate(120.3704,261.8097)"><path
             d="m 0,0 c 0,-11.184 9.066,-20.25 20.25,-20.25 11.184,0 20.25,9.066 20.25,20.25 0,11.184 -9.066,20.25 -20.25,20.25 C 9.066,20.25 0,11.184 0,0 Z"
             style="fill:none;stroke:#000000;stroke-width:1;stroke-linecap:butt;stroke-linejoin:miter;stroke-miterlimit:10;stroke-dasharray:none;stroke-opacity:1"
             id="path5618"
             inkscape:connector-curvature="0" /></g><g
           id="g5620"
           transform="translate(55.6293,416.7088)"><path
             d="M 0,0 C 0,-22.851 18.524,-41.375 41.375,-41.375 64.226,-41.375 82.75,-22.851 82.75,0 82.75,22.851 64.226,41.375 41.375,41.375 18.524,41.375 0,22.851 0,0 Z"
             style="fill:none;stroke:#000000;stroke-width:1;stroke-linecap:butt;stroke-linejoin:miter;stroke-miterlimit:10;stroke-dasharray:none;stroke-opacity:1"
             id="path5622"
             inkscape:connector-curvature="0" /></g><g
           id="g5624"
           transform="translate(65.2543,416.7088)"><path
             d="M 0,0 C 0,-17.535 14.215,-31.75 31.75,-31.75 49.285,-31.75 63.5,-17.535 63.5,0 63.5,17.535 49.285,31.75 31.75,31.75 14.215,31.75 0,17.535 0,0 Z"
             style="fill:none;stroke:#000000;stroke-width:1;stroke-linecap:butt;stroke-linejoin:miter;stroke-miterlimit:10;stroke-dasharray:none;stroke-opacity:1"
             id="path5626"
             inkscape:connector-curvature="0" /></g><g
           id="g5628"
           transform="translate(65.2543,416.7088)"><path
             d="M 0,0 H -7"
             style="fill:none;stroke:#000000;stroke-width:1;stroke-linecap:butt;stroke-linejoin:miter;stroke-miterlimit:10;stroke-dasharray:none;stroke-opacity:1"
             id="path5630"
             inkscape:connector-curvature="0" /></g><g
           id="g5632"
           transform="translate(128.7543,416.7088)"><path
             d="M 0,0 H 7"
             style="fill:none;stroke:#000000;stroke-width:1;stroke-linecap:butt;stroke-linejoin:miter;stroke-miterlimit:10;stroke-dasharray:none;stroke-opacity:1"
             id="path5634"
             inkscape:connector-curvature="0" /></g><g
           id="g5636"
           transform="translate(97.0043,448.4588)"><path
             d="M 0,0 V 7"
             style="fill:none;stroke:#000000;stroke-width:1;stroke-linecap:butt;stroke-linejoin:miter;stroke-miterlimit:10;stroke-dasharray:none;stroke-opacity:1"
             id="path5638"
             inkscape:connector-curvature="0" /></g><g
           id="g5640"
           transform="translate(97.0043,384.9588)"><path
             d="M 0,0 V -6.958"
             style="fill:none;stroke:#000000;stroke-width:1;stroke-linecap:butt;stroke-linejoin:miter;stroke-miterlimit:10;stroke-dasharray:none;stroke-opacity:1"
             id="path5642"
             inkscape:connector-curvature="0" /></g><g
           id="g5644"
           transform="translate(178.9632,0.8596)"><path
             d="m 0,0 h -67.459 c -7.958,0.214 -46.909,2.093 -78.333,34.086 -31.118,31.682 -32.547,70.182 -32.667,78.25 V 438.42 c -0.09,10.549 1.02,41.877 23.25,71.166 30.368,40.011 76.201,44.666 83.813,45.313 h 68.375 c 2.503,0 3.864,-0.77 4.771,-2.313 0.62,-1.055 0.584,-2.039 0.584,-2.667 V 1.951 C 2.346,1.708 2.321,1.358 2.133,1.01 1.767,0.33 0.932,-0.055 0,0 Z"
             style="fill:none;stroke:#000000;stroke-width:1;stroke-linecap:butt;stroke-linejoin:miter;stroke-miterlimit:10;stroke-dasharray:none;stroke-opacity:1"
             id="path5646"
             inkscape:connector-curvature="0" /></g><g
           id="g5648"
           transform="translate(137.8793,506.4457)"><path
             d="M 0,0 V -9.063"
             style="fill:none;stroke:#000000;stroke-width:1;stroke-linecap:round;stroke-linejoin:round;stroke-miterlimit:10;stroke-dasharray:none;stroke-opacity:1"
             id="path5650"
             inkscape:connector-curvature="0" /></g><g
           id="g5652"
           transform="translate(148.1293,506.4457)"><path
             d="M 0,0 H -10.25"
             style="fill:none;stroke:#000000;stroke-width:1;stroke-linecap:round;stroke-linejoin:round;stroke-miterlimit:10;stroke-dasharray:none;stroke-opacity:1"
             id="path5654"
             inkscape:connector-curvature="0" /></g><g
           id="g5656"
           transform="translate(167.0043,497.3832)"><path
             d="M 0,0 V 9.063"
             style="fill:none;stroke:#000000;stroke-width:1;stroke-linecap:round;stroke-linejoin:round;stroke-miterlimit:10;stroke-dasharray:none;stroke-opacity:1"
             id="path5658"
             inkscape:connector-curvature="0" /></g><g
           id="g5660"
           transform="translate(156.7543,497.3832)"><path
             d="M 0,0 H 10.25"
             style="fill:none;stroke:#000000;stroke-width:1;stroke-linecap:round;stroke-linejoin:round;stroke-miterlimit:10;stroke-dasharray:none;stroke-opacity:1"
             id="path5662"
             inkscape:connector-curvature="0" /></g><g
           id="g5664"
           transform="translate(148.1293,506.4457)"><path
             d="m 0,0 h 8.625 10.25"
             style="fill:none;stroke:#000000;stroke-width:1;stroke-linecap:round;stroke-linejoin:round;stroke-miterlimit:10;stroke-dasharray:none;stroke-opacity:1"
             id="path5666"
             inkscape:connector-curvature="0" /></g><g
           id="g5668"
           transform="translate(148.5766,555.7582)"><path
             d="m 0,0 v 4.219 c 0,0.112 0.072,0.944 -0.572,1.593 -0.651,0.656 -1.372,0.584 -1.605,0.584 h -36.739 c -10.39,-0.272 -37.486,-2.361 -64.281,-21.334 -24.89,-17.623 -35.921,-40.185 -40,-49.875 -0.761,-1.495 -0.197,-3.289 1.125,-4.031 1.453,-0.815 3.484,-0.167 4.223,1.533"
             style="fill:none;stroke:#000000;stroke-width:1;stroke-linecap:butt;stroke-linejoin:miter;stroke-miterlimit:10;stroke-dasharray:none;stroke-opacity:1"
             id="path5670"
             inkscape:connector-curvature="0" /></g><g
           id="g5672"
           transform="translate(90.5337,299.9331)"><path
             d="M 0,0 6.658,11.532 13.316,0 Z"
             style="fill:none;stroke:#000000;stroke-width:1;stroke-linecap:butt;stroke-linejoin:round;stroke-miterlimit:10;stroke-dasharray:none;stroke-opacity:1"
             id="path5674"
             inkscape:connector-curvature="0" /></g><g
           id="g5676"
           transform="translate(136.35,269.3339)"><path
             d="M 0,0 11.532,-6.658 0,-13.316 Z"
             style="fill:none;stroke:#000000;stroke-width:1;stroke-linecap:butt;stroke-linejoin:round;stroke-miterlimit:10;stroke-dasharray:none;stroke-opacity:1"
             id="path5678"
             inkscape:connector-curvature="0" /></g><g
           id="g5680"
           transform="translate(90.355,225.3485)"><path
             d="M 0,0 6.658,-11.532 13.316,0 Z"
             style="fill:none;stroke:#000000;stroke-width:1;stroke-linecap:butt;stroke-linejoin:round;stroke-miterlimit:10;stroke-dasharray:none;stroke-opacity:1"
             id="path5682"
             inkscape:connector-curvature="0" /></g><g
           id="g5684"
           transform="translate(58.1459,269.1464)"><path
             d="M 0,0 -11.532,-6.658 0,-13.316 Z"
             style="fill:none;stroke:#000000;stroke-width:1;stroke-linecap:butt;stroke-linejoin:round;stroke-miterlimit:10;stroke-dasharray:none;stroke-opacity:1"
             id="path5686"
             inkscape:connector-curvature="0" /></g><g
           id="g5688"
           transform="translate(156.7543,497.3832)"><path
             d="m 0,0 h -8.625 -10.25"
             style="fill:none;stroke:#000000;stroke-width:1;stroke-linecap:round;stroke-linejoin:round;stroke-miterlimit:10;stroke-dasharray:none;stroke-opacity:1"
             id="path5690"
             inkscape:connector-curvature="0" /></g><g
           id="g5692"
           transform="translate(144.0991,156.2998)"><path
             d="m 0,0 v -11.583 c 0,-0.245 0.071,-1.861 -1.062,-2.813 C -1.952,-15.103 -2.55,-15 -3.208,-15 h -26.791 c -0.658,0 -1.256,-0.103 -2.146,0.604 -1.133,0.952 -1.062,2.568 -1.062,2.813 V 0"
             style="fill:none;stroke:#000000;stroke-width:1;stroke-linecap:butt;stroke-linejoin:round;stroke-miterlimit:10;stroke-dasharray:none;stroke-opacity:1"
             id="path5694"
             inkscape:connector-curvature="0" /></g><g
           id="g5696"
           transform="translate(144.0991,156.2998)"><path
             d="m 0,0 v 15.236 c 0,0.245 0.071,1.86 -1.062,2.813 -0.89,0.707 -1.488,0.604 -2.146,0.604 h -26.791 c -0.658,0 -1.256,0.103 -2.146,-0.604 -1.133,-0.953 -1.062,-2.568 -1.062,-2.813 V 0"
             style="fill:none;stroke:#000000;stroke-width:1;stroke-linecap:butt;stroke-linejoin:round;stroke-miterlimit:10;stroke-dasharray:none;stroke-opacity:1"
             id="path5698"
             inkscape:connector-curvature="0" /></g><g
           id="g5700"
           transform="translate(138.412,158.3414)"><path
             d="m 0,0 c 0,6.029 -4.888,10.917 -10.917,10.917 -6.029,0 -10.916,-4.888 -10.916,-10.917 0,-6.029 4.887,-10.917 10.916,-10.917 C -4.888,-10.917 0,-6.029 0,0 Z"
             style="fill:none;stroke:#000000;stroke-width:1;stroke-linecap:butt;stroke-linejoin:round;stroke-miterlimit:10;stroke-dasharray:none;stroke-opacity:1"
             id="path5702"
             inkscape:connector-curvature="0" /></g></g></g></g></svg>