<?xml version="1.0" encoding="UTF-8" standalone="no"?>
<!-- Created with Inkscape (http://www.inkscape.org/) -->

<svg
   xmlns:dc="http://purl.org/dc/elements/1.1/"
   xmlns:cc="http://creativecommons.org/ns#"
   xmlns:rdf="http://www.w3.org/1999/02/22-rdf-syntax-ns#"
   xmlns:svg="http://www.w3.org/2000/svg"
   xmlns="http://www.w3.org/2000/svg"
   xmlns:sodipodi="http://sodipodi.sourceforge.net/DTD/sodipodi-0.dtd"
   xmlns:inkscape="http://www.inkscape.org/namespaces/inkscape"
   version="1.1"
   id="svg4504"
   xml:space="preserve"
   width="621.28802"
   height="233.62399"
   viewBox="0 0 621.28802 233.62399"
   sodipodi:docname="yuzu-logo-temp.svg"
   inkscape:version="0.92.2 (5c3e80d, 2017-08-06)"><metadata
     id="metadata4510"><rdf:RDF><cc:Work
         rdf:about=""><dc:format>image/svg+xml</dc:format><dc:type
           rdf:resource="http://purl.org/dc/dcmitype/StillImage" /><dc:title></dc:title></cc:Work></rdf:RDF></metadata><defs
     id="defs4508"><clipPath
       clipPathUnits="userSpaceOnUse"
       id="clipPath4520"><path
         d="M 0,175.218 H 465.966 V 0 H 0 Z"
         id="path4518"
         inkscape:connector-curvature="0" /></clipPath><clipPath
       clipPathUnits="userSpaceOnUse"
       id="clipPath4532"><path
         d="M 0,175.218 H 465.966 V 0 H 0 Z"
         id="path4530"
         inkscape:connector-curvature="0" /></clipPath><clipPath
       clipPathUnits="userSpaceOnUse"
       id="clipPath4544"><path
         d="M 0,175.218 H 465.966 V 0 H 0 Z"
         id="path4542"
         inkscape:connector-curvature="0" /></clipPath><clipPath
       clipPathUnits="userSpaceOnUse"
       id="clipPath4560"><path
         d="M 0,175.218 H 465.966 V 0 H 0 Z"
         id="path4558"
         inkscape:connector-curvature="0" /></clipPath><clipPath
       clipPathUnits="userSpaceOnUse"
       id="clipPath4576"><path
         d="M 0,175.218 H 465.966 V 0 H 0 Z"
         id="path4574"
         inkscape:connector-curvature="0" /></clipPath></defs><sodipodi:namedview
     pagecolor="#ffffff"
     bordercolor="#666666"
     borderopacity="1"
     objecttolerance="10"
     gridtolerance="10"
     guidetolerance="10"
     inkscape:pageopacity="0"
     inkscape:pageshadow="2"
     inkscape:window-width="1920"
     inkscape:window-height="1017"
     id="namedview4506"
     showgrid="false"
     inkscape:zoom="1.6389078"
     inkscape:cx="268.43552"
     inkscape:cy="75.884981"
     inkscape:window-x="-8"
     inkscape:window-y="-8"
     inkscape:window-maximized="1"
     inkscape:current-layer="g4512" /><g
     id="g4512"
     inkscape:groupmode="layer"
     inkscape:label="yuzu-logov3_halftail2"
     transform="matrix(1.3333333,0,0,-1.3333333,0,233.624)"><g
       id="g4514"><g
         id="g4516"
         clip-path="url(#clipPath4520)"><g
           id="g4522"
           transform="translate(344.3694,4.1403)"><path
             d="m 0,0 h -103.161 c -0.437,0 -1.062,0.989 -1.062,3.052 0,2.062 1.062,3.456 1.062,3.456 l 93.589,160.689 h -86.499 c -1.155,0.015 -1.132,1.899 -1.132,1.899 0,0 -0.023,1.902 1.132,1.902 0.739,0 90.197,0.178 91.171,0 1.302,-0.238 1.13,-2.238 1.13,-2.238 0,0 -0.109,-1.36 -1.13,-2.981 L -98.843,4.735 H 0 C 1.684,4.479 1.418,2.072 1.418,2.072 1.418,2.072 1.419,0.057 0,0"
             style="fill:#ffffff;fill-opacity:1;fill-rule:nonzero;stroke:none"
             id="path4524"
             inkscape:connector-curvature="0" /></g></g></g><g
       id="g4526"><g
         id="g4528"
         clip-path="url(#clipPath4532)"><g
           id="g4534"
           transform="translate(46.6664,4.9888)"><path
             d="M 0,0 C 31.819,0 44.729,15.583 44.729,46.738 V 74.572 C 42.243,64.241 37.392,56.015 30.173,49.89 21.822,42.71 11.328,39.124 -1.308,39.124 c -30.242,0 -45.358,15.578 -45.358,46.739 v 84.287 h 4.738 V 86.125 c 0,-11.73 2.931,-21.269 8.802,-28.621 6.992,-8.927 17.601,-13.391 31.818,-13.391 16.925,0 29.334,6.564 37.236,19.693 5.865,9.625 8.801,21.88 8.801,36.761 v 69.583 h 4.739 V 46.476 C 49.468,12.169 35.198,-4.311 0,-4.982"
             style="fill:#ffffff;fill-opacity:1;fill-rule:nonzero;stroke:none"
             id="path4536"
             inkscape:connector-curvature="0" /></g></g></g><g
       id="g4538"><g
         id="g4540"
         clip-path="url(#clipPath4544)"><g
           id="g4546"
           transform="translate(171.3136,2.1403)"><path
             d="m 0,0 c -18.845,0 -32.088,6.628 -39.728,19.888 -6.112,10.235 -9.168,25.34 -9.168,45.314 v 107.245 h 3.82 V 65.454 C -45.076,25.006 -30.051,4.783 0,4.783"
             style="fill:#ff3c28;fill-opacity:1;fill-rule:nonzero;stroke:none"
             id="path4548"
             inkscape:connector-curvature="0" /></g><g
           id="g4550"
           transform="translate(171.3136,6.923)"><path
             d="m 0,0 c 30.051,0 45.076,19.888 45.076,59.664 v 108.001 h 3.821 V 59.916 C 48.897,39.941 45.841,24.923 39.728,14.853 32.088,1.762 18.845,-4.783 0,-4.783"
             style="fill:#0ab9e6;fill-opacity:1;fill-rule:nonzero;stroke:none"
             id="path4552"
             inkscape:connector-curvature="0" /></g></g></g><g
       id="g4554"><g
         id="g4556"
         clip-path="url(#clipPath4560)"><g
           id="g4562"
           transform="translate(168.2092,92.861)"><path
             d="m 0,0 c -6.54,0 -11.842,5.871 -11.842,13.113 0,7.243 5.302,13.114 11.842,13.114 z m -14.947,13.113 c 0,-9.855 8.082,-17.844 18.051,-17.844 v 35.689 c -9.969,0 -18.051,-7.99 -18.051,-17.845"
             style="fill:#0ab9e6;fill-opacity:1;fill-rule:nonzero;stroke:none"
             id="path4564"
             inkscape:connector-curvature="0" /></g><g
           id="g4566"
           transform="translate(174.4179,67.1725)"><path
             d="m 0,0 v 26.227 c 6.54,0 11.842,-5.871 11.842,-13.114 C 11.842,5.871 6.54,0 0,0 M -3.104,30.958 V -4.731 c 9.969,0 18.051,7.989 18.051,17.844 0,9.855 -8.082,17.845 -18.051,17.845"
             style="fill:#ff3c28;fill-opacity:1;fill-rule:nonzero;stroke:none"
             id="path4568"
             inkscape:connector-curvature="0" /></g></g></g><g
       id="g4570"><g
         id="g4572"
         clip-path="url(#clipPath4576)"><g
           id="g4578"
           transform="translate(417.0693,2.1403)"><path
             d="m 0,0 c -18.845,0 -32.088,6.628 -39.728,19.888 -6.112,10.235 -9.168,25.34 -9.168,45.314 v 107.245 h 3.82 V 65.454 C -45.076,25.006 -30.051,4.783 0,4.783"
             style="fill:#ffffff;fill-opacity:1;fill-rule:nonzero;stroke:none"
             id="path4580"
             inkscape:connector-curvature="0" /></g><g
           id="g4582"
           transform="translate(417.0693,6.923)"><path
             d="m 0,0 c 30.051,0 45.076,19.888 45.076,59.664 v 108.001 h 3.821 V 59.916 C 48.897,39.941 45.841,24.923 39.728,14.853 32.088,1.762 18.845,-4.783 0,-4.783"
             style="fill:#ffffff;fill-opacity:1;fill-rule:nonzero;stroke:none"
             id="path4584"
             inkscape:connector-curvature="0" /></g></g></g></g></svg>