<svg xmlns="http://www.w3.org/2000/svg" viewBox="0 0 1023.21 173.34"><defs><style>.cls-1,.cls-2{fill:#fff;}.cls-1{stroke:#fff;stroke-miterlimit:10;stroke-width:3px;}.cls-3{fill:#ffdc00;}.cls-4{fill:#c6c6c6;}</style></defs><title>newAsset 3</title><g id="Layer_2" data-name="Layer 2"><g id="Layer_5" data-name="Layer 5"><path class="cls-1" d="M699.52,5.45l-6.67,33.43h40.83l-.42,2H692.43l-6.88,34.59h47.18l-.42,2H683l14.81-74h47.7l-.42,2Z"/><path class="cls-1" d="M808.36,22.8,797.47,77.49h-2.12l2.86-14.28a28.24,28.24,0,0,1-10.63,10.73A29.67,29.67,0,0,1,772.5,77.8q-10.68,0-17-6t-6.3-16.24a35.71,35.71,0,0,1,4-16.92,30.14,30.14,0,0,1,11-11.85,29.74,29.74,0,0,1,15.92-4.34q9.74,0,15.55,4.71t7,13.38l3.6-17.77Zm-21,49a28,28,0,0,0,10.2-11.1,33.74,33.74,0,0,0,3.71-15.87q0-9.61-5.66-15T779.8,24.49a27.1,27.1,0,0,0-14.54,4,28,28,0,0,0-10.21,11.11,33.7,33.7,0,0,0-3.7,15.87q0,9.61,5.66,15t15.81,5.34A27,27,0,0,0,787.37,71.77Z"/><path class="cls-1" d="M856.28,22.48l-.42,2.12h-1q-10,0-16.5,6.19t-8.88,18.14L823.8,77.49h-2.11L832.58,22.8h2.12l-2.86,14.07Q839.36,22.49,856.28,22.48Z"/><path class="cls-1" d="M876.8,1.5h2.11l-15.65,76h-2.11Z"/><path class="cls-1" d="M939.53,22.8,897.32,87q-4.23,6.34-8,8.83a15.4,15.4,0,0,1-8.72,2.48,17.41,17.41,0,0,1-6.67-1.26,11.66,11.66,0,0,1-4.86-3.6l1.69-1.59q3.5,4.44,10.16,4.45a13,13,0,0,0,7.4-2.28q3.39-2.28,7.09-8l5.81-8.88L887.06,22.8h2.22l13.54,52.25L937,22.8Z"/><path class="cls-1" d="M735.81,148.76H690.43l-14.81,22.32h-2.54l49.19-74h2.11l19.57,74h-2.22Zm-.53-2L723,99.79l-31.21,47Z"/><path class="cls-1" d="M761.4,165.14q-6.35-6-6.34-16.23a36,36,0,0,1,4-17,29.68,29.68,0,0,1,11.06-11.85,30.31,30.31,0,0,1,16-4.28,28.13,28.13,0,0,1,11.9,2.32,16.81,16.81,0,0,1,7.67,6.88L804,126.27q-5.49-8.46-18.09-8.46a27.57,27.57,0,0,0-25.06,15.12,33.76,33.76,0,0,0-3.71,15.87q0,9.73,5.72,15t16.28,5.29a27.76,27.76,0,0,0,11-2.17,21.74,21.74,0,0,0,8.41-6.08l1.27,1.48a22.56,22.56,0,0,1-8.94,6.45,30.74,30.74,0,0,1-12,2.33Q767.75,171.12,761.4,165.14Z"/><path class="cls-1" d="M818,165.14q-6.36-6-6.35-16.23a35.92,35.92,0,0,1,4-17,29.59,29.59,0,0,1,11-11.85,30.31,30.31,0,0,1,16-4.28,28.13,28.13,0,0,1,11.9,2.32,16.81,16.81,0,0,1,7.67,6.88l-1.59,1.27q-5.49-8.46-18.08-8.46a27.57,27.57,0,0,0-25.07,15.12,33.76,33.76,0,0,0-3.71,15.87q0,9.73,5.72,15t16.29,5.29a27.74,27.74,0,0,0,10.94-2.17,21.74,21.74,0,0,0,8.41-6.08l1.27,1.48a22.49,22.49,0,0,1-8.94,6.45,30.74,30.74,0,0,1-12,2.33Q824.33,171.12,818,165.14Z"/><path class="cls-1" d="M870.67,143.41a42,42,0,0,0-.31,5.18q0,9.94,5.71,15.23t16.5,5.29a29,29,0,0,0,11.32-2.17,23.28,23.28,0,0,0,8.57-6l1.26,1.38a23.42,23.42,0,0,1-9,6.4,31.14,31.14,0,0,1-12.22,2.38q-11.41,0-17.77-5.87t-6.34-16.66a36.48,36.48,0,0,1,3.8-16.71,29.6,29.6,0,0,1,10.48-11.8,27,27,0,0,1,14.91-4.28q10.37,0,16.34,5.92t6,16.29a27.7,27.7,0,0,1-.53,5.4Zm9.68-19.1A30.17,30.17,0,0,0,871,141.4h46.65a28.75,28.75,0,0,0,.21-4q0-9.31-5.55-14.44t-14.76-5.13A24.9,24.9,0,0,0,880.35,124.31Z"/><path class="cls-1" d="M933.61,169.06a21.78,21.78,0,0,1-8.57-5.24l1.59-1.69a20.68,20.68,0,0,0,8.14,5.13,31.09,31.09,0,0,0,10.69,1.85q9.4,0,14.81-3.6a11.32,11.32,0,0,0,5.39-9.94,7.84,7.84,0,0,0-2.06-5.71,12.51,12.51,0,0,0-5.08-3.12q-3-1-8.3-2.17a80.85,80.85,0,0,1-8.94-2.33,13.56,13.56,0,0,1-5.77-3.7,9.94,9.94,0,0,1-2.32-7,13.51,13.51,0,0,1,5.92-11.43q5.92-4.34,15.66-4.33a31.91,31.91,0,0,1,9.83,1.53,19.86,19.86,0,0,1,7.51,4.07L970.63,123a19.06,19.06,0,0,0-7.09-3.86,29.64,29.64,0,0,0-8.88-1.32q-8.77,0-14.07,3.7a11.54,11.54,0,0,0-5.29,9.94,7.87,7.87,0,0,0,2.12,5.82,13.23,13.23,0,0,0,5.23,3.17,72.63,72.63,0,0,0,8.2,2.12,73.23,73.23,0,0,1,8.94,2.33,13.62,13.62,0,0,1,5.66,3.7,9.77,9.77,0,0,1,2.33,6.87,13.22,13.22,0,0,1-6,11.48q-6,4.19-16.4,4.18A33.85,33.85,0,0,1,933.61,169.06Z"/><path class="cls-1" d="M982.58,169.06a21.81,21.81,0,0,1-8.56-5.24l1.58-1.69a20.72,20.72,0,0,0,8.15,5.13,31,31,0,0,0,10.68,1.85q9.42,0,14.81-3.6a11.3,11.3,0,0,0,5.39-9.94,7.8,7.8,0,0,0-2.06-5.71,12.45,12.45,0,0,0-5.08-3.12c-2-.67-4.77-1.39-8.3-2.17a80.85,80.85,0,0,1-8.94-2.33,13.52,13.52,0,0,1-5.76-3.7,9.94,9.94,0,0,1-2.33-7,13.51,13.51,0,0,1,5.92-11.43q5.92-4.34,15.66-4.33a32,32,0,0,1,9.84,1.53,20,20,0,0,1,7.51,4.07l-1.48,1.59a19.13,19.13,0,0,0-7.09-3.86,29.66,29.66,0,0,0-8.89-1.32q-8.77,0-14.06,3.7a11.54,11.54,0,0,0-5.29,9.94,7.86,7.86,0,0,0,2.11,5.82,13.27,13.27,0,0,0,5.24,3.17,72.07,72.07,0,0,0,8.2,2.12,73.5,73.5,0,0,1,8.93,2.33,13.62,13.62,0,0,1,5.66,3.7,9.77,9.77,0,0,1,2.33,6.87,13.22,13.22,0,0,1-6,11.48q-6,4.19-16.39,4.18A33.91,33.91,0,0,1,982.58,169.06Z"/></g><g id="Layer_8" data-name="Layer 8"><path id="_Compound_Path_" data-name="&lt;Compound Path&gt;" class="cls-2" d="M518.67,172.79H415.51c-.44,0-1.07-1-1.07-3.06a6.1,6.1,0,0,1,1.07-3.45L509.1,4.22H422.6c-1.16,0-1.14-1.9-1.14-1.9s0-1.9,1.14-1.9c.74,0,90.19-.18,91.17,0,1.3.24,1.13,2.24,1.13,2.24a7.34,7.34,0,0,1-1.13,3L419.82,168.05h98.85c1.68.26,1.42,2.66,1.42,2.66S520.09,172.73,518.67,172.79Z"/><path id="_Compound_Path_2" data-name="&lt;Compound Path&gt;" class="cls-2" d="M221,167.8c31.82,0,44.73-15.59,44.73-46.74V93.22q-3.72,15.51-14.55,24.69-12.52,10.77-31.48,10.76-45.37,0-45.36-46.74V.34H179V81.67c0,11.73,2.68,23,8.56,30.3,7,8.93,17.84,11.71,32.06,11.71q25.38,0,37.23-19.69,8.81-14.43,8.8-36.76V.34h4.74v121c0,34.31-14.27,50.79-49.47,51.46"/><g id="_Group_" data-name="&lt;Group&gt;"><path class="cls-3" d="M394.51.34V108.09q0,30-9.17,45.06-11.46,19.64-39.73,19.63T305.88,152.9q-9.17-15.36-9.17-45.32V.34h3.83v107q0,60.68,45.07,60.67t45.08-59.66V.34Z"/></g><g id="_Group_2" data-name="&lt;Group&gt;"><path id="_Compound_Path_3" data-name="&lt;Compound Path&gt;" class="cls-4" d="M591.37,172.79q-28.27,0-39.73-19.89-9.17-15.36-9.17-45.32V.34h3.82v107q0,60.68,45.08,60.67"/><path id="_Compound_Path_4" data-name="&lt;Compound Path&gt;" class="cls-4" d="M591.37,168q45.07,0,45.07-59.66V.34h3.82V108.09q0,30-9.16,45.06-11.46,19.64-39.73,19.64"/></g><g id="_Group_3" data-name="&lt;Group&gt;"><path class="cls-3" d="M64,6.08V133.65A64,64,0,0,1,64,6.08M69,.89a69,69,0,0,0,0,138V.89Z"/></g><path id="_Compound_Path_5" data-name="&lt;Compound Path&gt;" class="cls-4" d="M91.22,40.57a64,64,0,0,1,0,127.57V40.57m-5-5.19v138a69,69,0,0,0,0-138Z"/></g></g></svg>