<svg xmlns="http://www.w3.org/2000/svg" viewBox="0 0 805.46 149.17"><defs><style>.cls-1,.cls-4{fill:#fff;}.cls-2{fill:#c6c6c6;}.cls-3{fill:#ffdc00;}.cls-4{stroke:#fff;stroke-miterlimit:10;stroke-width:3px;}</style></defs><g id="Layer_2" data-name="Layer 2"><g id="Layer_1-2" data-name="Layer 1"><path class="cls-1" d="M509.55,16.26v73c0,14.5-2.24,25.24-6.84,32.82-5.92,10.15-16.2,15.32-30.53,15.32s-24.62-5.23-30.58-15.57c-4.56-7.64-6.79-18.42-6.79-32.92V16.26a4.51,4.51,0,0,1,4.51-4.51h2.28a4.51,4.51,0,0,1,4.51,4.51v72.5c0,33.53,14.88,37.4,26.07,37.4,12.14,0,26.08-4.17,26.08-36.71V16.26a4.51,4.51,0,0,1,4.51-4.51H505A4.51,4.51,0,0,1,509.55,16.26Z"/><path class="cls-1" d="M415.07,137.43H347.18c-2.35,0-4.72-1.88-4.72-6.08a8.32,8.32,0,0,1,1.33-4.49L404.12,22.39H354.53a4.51,4.51,0,0,1-4.51-4.5V16.31a4.51,4.51,0,0,1,4.48-4.51h.8c58.69-.11,59.12,0,59.67.07a5.2,5.2,0,0,1,4,5.8,9,9,0,0,1-1.33,3.75L357.06,126.2h58a4.52,4.52,0,0,1,4.51,4.51v2.21A4.52,4.52,0,0,1,415.07,137.43Z"/><path class="cls-1" d="M242.18,16.26V98.32c0,26-11.8,38.44-37.12,39.09h-.12a4.51,4.51,0,0,1-4.51-4.51v-2.37a4.51,4.51,0,0,1,4.48-4.5c18.49-.15,26-8.23,26-27.9V95.76A32.34,32.34,0,0,1,227.6,99c-6.39,5.5-14.5,8.29-24.07,8.29-22.86,0-34.95-12.41-34.95-35.89V16.26a4.52,4.52,0,0,1,4.51-4.51h2.22a4.52,4.52,0,0,1,4.5,4.51v55c0,7.6,1.82,14.22,5,18.18,3.57,4.56,9.17,6.49,18.75,6.49,10.13,0,17.32-3.76,22-11.5,3.61-5.92,5.43-13.66,5.43-23V16.26a4.52,4.52,0,0,1,4.51-4.51h2.22A4.52,4.52,0,0,1,242.18,16.26Z"/><path class="cls-1" d="M331.85,16.26v73c0,14.5-2.24,25.24-6.84,32.82-5.92,10.15-16.2,15.32-30.53,15.32s-24.62-5.23-30.58-15.57c-4.56-7.64-6.79-18.42-6.79-32.92V16.26a4.51,4.51,0,0,1,4.51-4.51h2.28a4.51,4.51,0,0,1,4.51,4.51v72.5c0,33.53,14.88,37.4,26.07,37.4,12.14,0,26.08-4.17,26.08-36.71V16.26a4.51,4.51,0,0,1,4.51-4.51h2.27A4.51,4.51,0,0,1,331.85,16.26Z"/><g id="g823"><g id="right"><g id="g827"><g id="g833"><path id="path835" class="cls-2" d="M74.59,29.83V149.17a59.67,59.67,0,0,0,0-119.34M86.24,42.9a48,48,0,0,1,0,93.2V42.9"/></g></g></g><g id="left"><g id="g839"><g id="g845"><path id="path847" class="cls-3" d="M59.67,0a59.67,59.67,0,0,0,0,119.34ZM48,13.07v93.2a48,48,0,0,1,0-93.2"/></g></g></g></g></g><g id="Layer_3" data-name="Layer 3"><path class="cls-4" d="M565.06,14.67l-4.94,24.77h30.26l-.32,1.49H559.81l-5.1,25.63h35l-.31,1.49H552.83l11-54.87h35.35l-.32,1.49Z"/><path class="cls-4" d="M645.71,27.53l-8.07,40.52h-1.57l2.12-10.58a21,21,0,0,1-7.88,8,22,22,0,0,1-11.17,2.86q-7.92,0-12.58-4.42t-4.66-12a26.43,26.43,0,0,1,2.94-12.54A22.3,22.3,0,0,1,613,30.51a22,22,0,0,1,11.79-3.22q7.22,0,11.53,3.49a14.73,14.73,0,0,1,5.17,9.91l2.66-13.16ZM630.15,63.82a20.76,20.76,0,0,0,7.57-8.23,25,25,0,0,0,2.74-11.76q0-7.12-4.19-11.09t-11.72-4a20.08,20.08,0,0,0-10.78,3A20.81,20.81,0,0,0,606.21,40a25,25,0,0,0-2.74,11.76q0,7.13,4.19,11.09t11.72,4A20.1,20.1,0,0,0,630.15,63.82Z"/><path class="cls-4" d="M681.22,27.29l-.32,1.57h-.7A17,17,0,0,0,668,33.44q-4.79,4.59-6.58,13.45l-4.24,21.16h-1.56l8.07-40.52h1.57L663.11,38Q668.68,27.3,681.22,27.29Z"/><path class="cls-4" d="M696.42,11.74H698l-11.6,56.31h-1.57Z"/><path class="cls-4" d="M742.9,27.53,711.63,75.1a23.35,23.35,0,0,1-5.92,6.55,11.52,11.52,0,0,1-6.47,1.84,12.7,12.7,0,0,1-4.93-.94,8.62,8.62,0,0,1-3.61-2.67L692,78.71A9,9,0,0,0,699.48,82,9.58,9.58,0,0,0,705,80.31a20.34,20.34,0,0,0,5.26-5.91l4.31-6.59L704,27.53h1.65l10,38.72L741,27.53Z"/><path class="cls-4" d="M592,120.86H558.33l-11,16.54h-1.88l36.45-54.86h1.56L598,137.4h-1.64Zm-.39-1.49-9.09-34.8-23.13,34.8Z"/><path class="cls-4" d="M610.92,133q-4.71-4.42-4.71-12a26.65,26.65,0,0,1,2.94-12.58,22,22,0,0,1,8.19-8.78,22.4,22.4,0,0,1,11.84-3.17A20.87,20.87,0,0,1,638,98.16a12.47,12.47,0,0,1,5.68,5.09l-1.18.94q-4.07-6.27-13.4-6.27a20.42,20.42,0,0,0-18.57,11.21,25,25,0,0,0-2.75,11.76q0,7.22,4.23,11.13t12.07,3.92a20.68,20.68,0,0,0,8.12-1.61,16.15,16.15,0,0,0,6.23-4.51l.94,1.1a16.72,16.72,0,0,1-6.62,4.78,22.81,22.81,0,0,1-8.9,1.73Q615.62,137.43,610.92,133Z"/><path class="cls-4" d="M652.85,133q-4.71-4.42-4.7-12a26.65,26.65,0,0,1,2.94-12.58,21.82,21.82,0,0,1,8.19-8.78,22.37,22.37,0,0,1,11.83-3.17,20.81,20.81,0,0,1,8.82,1.72,12.47,12.47,0,0,1,5.68,5.09l-1.17.94q-4.08-6.27-13.41-6.27a20.42,20.42,0,0,0-18.57,11.21,25,25,0,0,0-2.75,11.76q0,7.22,4.24,11.13T666,135.94a20.67,20.67,0,0,0,8.11-1.61,16.15,16.15,0,0,0,6.23-4.51l.94,1.1a16.72,16.72,0,0,1-6.62,4.78,22.81,22.81,0,0,1-8.9,1.73C660.3,137.43,656,136,652.85,133Z"/><path class="cls-4" d="M691.88,116.89a30.46,30.46,0,0,0-.23,3.84q0,7.36,4.23,11.29t12.23,3.92a21.5,21.5,0,0,0,8.38-1.61,17.24,17.24,0,0,0,6.35-4.43l.94,1a17.28,17.28,0,0,1-6.7,4.74,23,23,0,0,1-9.05,1.77q-8.47,0-13.17-4.35t-4.7-12.35A27,27,0,0,1,693,108.35a22,22,0,0,1,7.76-8.74,20,20,0,0,1,11-3.17q7.68,0,12.11,4.38t4.43,12.07a20.4,20.4,0,0,1-.39,4Zm7.17-14.15a22.36,22.36,0,0,0-6.93,12.66h34.56a20.19,20.19,0,0,0,.16-3q0-6.89-4.12-10.69t-10.93-3.81A18.46,18.46,0,0,0,699.05,102.74Z"/><path class="cls-4" d="M738.52,135.9a16.13,16.13,0,0,1-6.35-3.88l1.17-1.26a15.24,15.24,0,0,0,6,3.81,23,23,0,0,0,7.91,1.37q7,0,11-2.67a8.38,8.38,0,0,0,4-7.36,5.86,5.86,0,0,0-1.52-4.24,9.36,9.36,0,0,0-3.77-2.31c-1.49-.5-3.54-1-6.15-1.61A58,58,0,0,1,744.2,116a10,10,0,0,1-4.27-2.74,7.39,7.39,0,0,1-1.73-5.18,10,10,0,0,1,4.39-8.46q4.39-3.21,11.6-3.21a23.54,23.54,0,0,1,7.29,1.13,14.78,14.78,0,0,1,5.56,3L766,101.76a14.26,14.26,0,0,0-5.25-2.86,22.08,22.08,0,0,0-6.59-1q-6.5,0-10.42,2.75a8.56,8.56,0,0,0-3.92,7.37,5.83,5.83,0,0,0,1.57,4.31,9.87,9.87,0,0,0,3.88,2.35,53.59,53.59,0,0,0,6.07,1.56,53.89,53.89,0,0,1,6.62,1.73,10.1,10.1,0,0,1,4.2,2.74,7.27,7.27,0,0,1,1.72,5.1,9.79,9.79,0,0,1-4.47,8.5q-4.46,3.1-12.14,3.1A24.89,24.89,0,0,1,738.52,135.9Z"/><path class="cls-4" d="M774.8,135.9a16.08,16.08,0,0,1-6.34-3.88l1.17-1.26a15.24,15.24,0,0,0,6,3.81,23,23,0,0,0,7.91,1.37q7,0,11-2.67a8.38,8.38,0,0,0,4-7.36,5.82,5.82,0,0,0-1.53-4.24,9.25,9.25,0,0,0-3.76-2.31c-1.49-.5-3.54-1-6.15-1.61a57.4,57.4,0,0,1-6.62-1.72,10.06,10.06,0,0,1-4.28-2.74,7.43,7.43,0,0,1-1.72-5.18,10,10,0,0,1,4.39-8.46q4.39-3.21,11.6-3.21a23.54,23.54,0,0,1,7.29,1.13,14.86,14.86,0,0,1,5.56,3l-1.09,1.17A14.34,14.34,0,0,0,797,98.9a22.13,22.13,0,0,0-6.59-1q-6.51,0-10.42,2.75a8.54,8.54,0,0,0-3.92,7.37,5.83,5.83,0,0,0,1.57,4.31,9.8,9.8,0,0,0,3.88,2.35,53.59,53.59,0,0,0,6.07,1.56A53.89,53.89,0,0,1,794.2,118a10.1,10.1,0,0,1,4.2,2.74,7.32,7.32,0,0,1,1.72,5.1,9.79,9.79,0,0,1-4.47,8.5q-4.47,3.1-12.15,3.1A25,25,0,0,1,774.8,135.9Z"/></g></g></svg>