<?xml version="1.0" encoding="UTF-8" standalone="no"?>
<svg
   viewBox="0 0 805.46004 149.17"
   version="1.1"
   id="svg347"
   sodipodi:docname="mainline.svg"
   width="805.46002"
   height="149.17"
   inkscape:version="1.2.2 (732a01da63, 2022-12-09)"
   xmlns:inkscape="http://www.inkscape.org/namespaces/inkscape"
   xmlns:sodipodi="http://sodipodi.sourceforge.net/DTD/sodipodi-0.dtd"
   xmlns="http://www.w3.org/2000/svg"
   xmlns:svg="http://www.w3.org/2000/svg">
  <sodipodi:namedview
     id="namedview349"
     pagecolor="#ffffff"
     bordercolor="#000000"
     borderopacity="0.25"
     inkscape:showpageshadow="2"
     inkscape:pageopacity="0.0"
     inkscape:pagecheckerboard="0"
     inkscape:deskcolor="#d1d1d1"
     showgrid="false"
     inkscape:zoom="2.3746444"
     inkscape:cx="169.70962"
     inkscape:cy="74.537478"
     inkscape:window-width="3372"
     inkscape:window-height="1401"
     inkscape:window-x="55"
     inkscape:window-y="1440"
     inkscape:window-maximized="0"
     inkscape:current-layer="svg347" />
  <defs
     id="defs326">
    <style
       id="style324">.cls-1{fill:#fff;}.cls-2{fill:#ff3c28;}.cls-3{fill:#0ab9e6;}</style>
  </defs>
  <g
     id="Layer_2"
     data-name="Layer 2"
     transform="translate(147.95501)">
    <g
       id="Layer_1-2"
       data-name="Layer 1">
      <path
         class="cls-1"
         d="m 509.55,16.26 v 73 c 0,14.5 -2.24,25.24 -6.84,32.82 -5.92,10.15 -16.2,15.32 -30.53,15.32 -14.33,0 -24.62,-5.23 -30.58,-15.57 -4.56,-7.64 -6.79,-18.42 -6.79,-32.92 V 16.26 a 4.51,4.51 0 0 1 4.51,-4.51 h 2.28 a 4.51,4.51 0 0 1 4.51,4.51 v 72.5 c 0,33.53 14.88,37.4 26.07,37.4 12.14,0 26.08,-4.17 26.08,-36.71 V 16.26 a 4.51,4.51 0 0 1 4.51,-4.51 H 505 a 4.51,4.51 0 0 1 4.55,4.51 z"
         id="path328" />
      <path
         class="cls-1"
         d="m 415.07,137.43 h -67.89 c -2.35,0 -4.72,-1.88 -4.72,-6.08 a 8.32,8.32 0 0 1 1.33,-4.49 L 404.12,22.39 h -49.59 a 4.51,4.51 0 0 1 -4.51,-4.5 v -1.58 a 4.51,4.51 0 0 1 4.48,-4.51 h 0.8 c 58.69,-0.11 59.12,0 59.67,0.07 a 5.2,5.2 0 0 1 4,5.8 9,9 0 0 1 -1.33,3.75 L 357.06,126.2 h 58 a 4.52,4.52 0 0 1 4.51,4.51 v 2.21 a 4.52,4.52 0 0 1 -4.5,4.51 z"
         id="path330" />
      <path
         class="cls-1"
         d="m 242.18,16.26 v 82.06 c 0,26 -11.8,38.44 -37.12,39.09 h -0.12 a 4.51,4.51 0 0 1 -4.51,-4.51 v -2.37 a 4.51,4.51 0 0 1 4.48,-4.5 c 18.49,-0.15 26,-8.23 26,-27.9 V 95.76 A 32.34,32.34 0 0 1 227.6,99 c -6.39,5.5 -14.5,8.29 -24.07,8.29 -22.86,0 -34.95,-12.41 -34.95,-35.89 V 16.26 a 4.52,4.52 0 0 1 4.51,-4.51 h 2.22 a 4.52,4.52 0 0 1 4.5,4.51 v 55 c 0,7.6 1.82,14.22 5,18.18 3.57,4.56 9.17,6.49 18.75,6.49 10.13,0 17.32,-3.76 22,-11.5 3.61,-5.92 5.43,-13.66 5.43,-23 V 16.26 a 4.52,4.52 0 0 1 4.51,-4.51 h 2.22 a 4.52,4.52 0 0 1 4.46,4.51 z"
         id="path332" />
      <path
         class="cls-1"
         d="m 331.85,16.26 v 73 c 0,14.5 -2.24,25.24 -6.84,32.82 -5.92,10.15 -16.2,15.32 -30.53,15.32 -14.33,0 -24.62,-5.23 -30.58,-15.57 -4.56,-7.64 -6.79,-18.42 -6.79,-32.92 V 16.26 a 4.51,4.51 0 0 1 4.51,-4.51 h 2.28 a 4.51,4.51 0 0 1 4.51,4.51 v 72.5 c 0,33.53 14.88,37.4 26.07,37.4 12.14,0 26.08,-4.17 26.08,-36.71 V 16.26 a 4.51,4.51 0 0 1 4.51,-4.51 h 2.27 a 4.51,4.51 0 0 1 4.51,4.51 z"
         id="path334" />
      <g
         id="g823">
        <g
           id="right">
          <g
             id="g827">
            <g
               id="g833">
              <path
                 id="path835"
                 class="cls-2"
                 d="m 74.59,29.83 v 119.34 a 59.67,59.67 0 0 0 0,-119.34 M 86.24,42.9 a 48,48 0 0 1 0,93.2 V 42.9" />
            </g>
          </g>
        </g>
        <g
           id="left">
          <g
             id="g839">
            <g
               id="g845">
              <path
                 id="path847"
                 class="cls-3"
                 d="m 59.67,0 a 59.67,59.67 0 0 0 0,119.34 z M 48,13.07 v 93.2 a 48,48 0 0 1 0,-93.2" />
            </g>
          </g>
        </g>
      </g>
    </g>
  </g>
</svg>